HIERARCHY
ROOT hip
{
	OFFSET 0.000000 0.000000 0.000000 
	CHANNELS 6 Xposition Yposition Zposition Xrotation Zrotation Yrotation
	JOINT abdomen
	{
		OFFSET 0.000000 3.402643 0.000000 
		CHANNELS 3 Xrotation Zrotation Yrotation
		JOINT chest
		{
			OFFSET 0.000000 8.438565 -0.680529 
			CHANNELS 3 Xrotation Zrotation Yrotation
			JOINT neck
			{
				OFFSET 0.000000 10.207942 -0.272212 
				CHANNELS 3 Xrotation Zrotation Yrotation
				JOINT head
				{
					OFFSET 0.000000 3.130431 0.000000 
					CHANNELS 3 Xrotation Zrotation Yrotation
					End Site
					{
						OFFSET 0.000000 3.130435 0.000000 
					}
				}
			}
			JOINT lCollar
			{
				OFFSET 3.470700 6.669187 -0.816635 
				CHANNELS 3 Yrotation Zrotation Xrotation
				JOINT lShldr
				{
					OFFSET 3.198488 0.000000 0.000000 
					CHANNELS 3 Zrotation Yrotation Xrotation
					JOINT lForeArm
					{
						OFFSET 10.139888 0.000000 0.000000 
						CHANNELS 3 Yrotation Zrotation Xrotation
						JOINT lHand
						{
							OFFSET 8.370511 0.000000 0.000000 
							CHANNELS 3 Zrotation Yrotation Xrotation
							End Site
							{
								OFFSET 4.083176 0.000000 0.000000 
							}
						}
					}
				}
			}
			JOINT rCollar
			{
				OFFSET -3.470700 6.669187 -0.816635 
				CHANNELS 3 Yrotation Zrotation Xrotation
				JOINT rShldr
				{
					OFFSET -3.198488 0.000000 0.000000 
					CHANNELS 3 Zrotation Yrotation Xrotation
					JOINT rForeArm
					{
						OFFSET -10.139888 0.000000 0.000000 
						CHANNELS 3 Yrotation Zrotation Xrotation
						JOINT rHand
						{
							OFFSET -8.370511 0.000000 0.000000 
							CHANNELS 3 Zrotation Yrotation Xrotation
							End Site
							{
								OFFSET -4.083176 0.000000 0.000000 
							}
						}
					}
				}
			}
		}
	}
	JOINT lThigh
	{
		OFFSET 5.308129 -1.633274 1.361059 
		CHANNELS 3 Xrotation Zrotation Yrotation
		JOINT lShin
		{
			OFFSET -2.041588 -20.007561 0.000000 
			CHANNELS 3 Xrotation Zrotation Yrotation
			JOINT lFoot
			{
				OFFSET 0.000000 -19.190928 -1.224953 
				CHANNELS 3 Xrotation Yrotation Zrotation
				End Site
				{
					OFFSET 0.000000 -2.449906 4.627600 
				}
			}
		}
	}
	JOINT rThigh
	{
		OFFSET -5.308129 -1.633274 1.361059 
		CHANNELS 3 Xrotation Zrotation Yrotation
		JOINT rShin
		{
			OFFSET 2.041588 -20.007561 0.000000 
			CHANNELS 3 Xrotation Zrotation Yrotation
			JOINT rFoot
			{
				OFFSET 0.000000 -19.190928 -1.224953 
				CHANNELS 3 Xrotation Yrotation Zrotation
				End Site
				{
					OFFSET 0.000000 -2.449906 4.627600 
				}
			}
		}
	}
}
MOTION
Frames: 11
Frame Time: 0.033333
3.693533 42.370029 -9.932974 -4.488429 -4.715882 -38.003460 0.000000 0.000000 0.000000 9.059359 2.224556 2.433598 -10.549769 -6.504683 15.502344 7.460166 -0.296857 11.308743 -3.521967 9.154817 6.304141 -55.119614 -31.288034 -45.000027 -80.419441 -4.999857 9.578393 10.998194 25.441628 -8.112939 3.089181 -14.089146 8.026228 90.000000 36.347656 28.394461 92.342216 4.989058 26.312336 7.762158 -4.774375 -7.886889 -31.927057 29.182701 5.286717 29.761869 0.291346 -7.139309 5.272292 0.183426 -11.033971 8.042880 -17.066751 -23.354298 47.744076 -7.085396 -13.325953 -27.228012 1.708253 -6.271881 
3.261075 41.787655 -12.038529 -4.146023 -5.085917 -38.460686 0.000000 0.000000 0.000000 10.156796 1.903885 1.192371 -11.455331 -6.868210 16.971113 7.213546 0.572731 12.188149 -3.521967 9.154817 6.304141 -54.183590 -28.725624 -44.999260 -83.318359 -5.007636 6.413958 13.427783 24.061153 -7.871293 3.089181 -14.089146 8.026228 89.989296 36.576908 28.392618 93.561119 4.987853 25.942558 8.421868 -4.472866 -7.805378 -33.383442 30.746691 4.447711 29.316572 1.198189 -9.062690 -0.230315 0.622712 -7.225132 4.931245 -15.352160 -22.990162 51.192009 -6.336824 -17.454277 -32.258095 2.505060 -7.620920 
2.886892 41.541245 -13.780638 -3.686912 -5.271113 -37.805408 0.000000 0.000000 0.000000 10.915341 2.089428 -1.143243 -12.793088 -7.247232 18.256380 7.349919 1.266188 12.874370 -3.521967 9.154817 6.304141 -54.668331 -24.864140 -45.000107 -87.019127 -5.003144 3.646092 14.335171 23.551390 -7.817033 3.089181 -14.089146 8.026228 89.989304 36.049458 27.670036 96.533020 4.989258 24.318913 9.123226 -4.335565 -7.735588 -34.823158 31.580948 3.914945 28.583775 1.517666 -11.524587 -3.734458 0.540664 -4.691978 3.151861 -13.804581 -23.094345 52.796303 -4.917606 -19.219137 -35.965240 3.045550 -8.452972 
2.625271 41.613049 -14.989510 -3.919278 -5.544014 -36.497185 0.000000 0.000000 0.000000 12.247642 1.969265 -3.361080 -14.266769 -6.788990 18.571375 7.895678 1.102820 13.215475 -3.521967 9.154817 6.304141 -56.136780 -21.596954 -45.001476 -91.741463 -4.997087 1.742712 14.525355 24.008240 -7.757066 3.089181 -14.089146 8.026228 89.989250 34.603741 25.023752 100.879082 4.997843 21.115919 9.444364 -3.968466 -7.660688 -35.280064 31.608244 4.239136 29.353544 1.326460 -13.647677 -2.857677 0.569138 -5.493180 2.840701 -12.713078 -23.319138 53.306652 -3.569261 -20.153431 -37.554356 3.220737 -8.503014 
2.489173 41.923748 -15.678727 -4.747346 -5.390116 -35.384945 0.000000 0.000000 0.000000 12.879849 1.334248 -4.229641 -14.051222 -6.764194 18.255541 8.283604 1.113474 12.961618 -3.521967 9.154817 6.304141 -58.514736 -20.334148 -45.005436 -94.773521 -5.005302 -0.342006 16.836617 22.482754 -7.676788 3.089181 -14.089146 8.026228 89.989235 32.405899 21.361954 104.783348 4.983677 19.008013 8.969182 -3.981634 -7.698591 -35.063423 30.649422 5.258858 33.589970 1.022753 -16.419727 -1.670719 0.631635 -6.880771 2.721233 -12.377110 -23.229883 53.794868 -3.188436 -20.506611 -36.851177 2.889003 -7.960875 
2.441254 42.516003 -15.997959 -5.283433 -4.400103 -34.922527 0.000000 0.000000 0.000000 12.119061 0.292312 -3.837940 -12.866026 -7.119241 17.738323 9.085816 1.392450 12.415979 -3.521967 9.154817 6.304141 -61.308483 -19.552906 -44.999844 -96.454735 -5.001894 -1.008569 16.612947 21.828278 -7.747898 3.089181 -14.089146 8.026228 89.989304 29.905416 18.334974 107.885391 4.987517 17.078199 9.345339 -4.680120 -7.779060 -34.618176 28.583035 6.310831 39.184494 0.836319 -17.801630 -1.306616 0.675502 -7.580986 2.740704 -12.543130 -22.368814 52.209152 -2.769764 -20.613457 -35.590878 2.577267 -7.387163 
2.512904 43.359623 -16.073750 -5.219965 -3.202019 -34.779175 0.000000 0.000000 0.000000 10.077714 -0.604779 -2.734532 -11.484654 -7.185773 16.983055 10.824528 1.366592 11.878559 -3.521967 9.154817 6.304141 -64.313934 -18.890707 -45.003590 -96.934875 -5.003459 0.704543 13.636154 22.766493 -7.929424 3.089181 -14.089146 8.026228 89.093422 27.264870 15.947479 109.235489 4.989850 15.832370 9.274804 -5.165869 -7.854392 -34.059166 26.188234 7.203153 44.106915 0.728580 -18.979595 -1.151214 0.658921 -8.024663 2.957634 -12.752234 -21.176544 49.013973 -2.028392 -20.482704 -33.368885 2.214577 -6.646532 
2.668726 44.220306 -16.019711 -4.909177 -2.121324 -34.333710 0.000000 0.000000 0.000000 7.687373 -0.976066 -1.826572 -9.830321 -7.480816 16.116638 12.198539 1.341275 11.175175 -3.521967 9.154817 6.304141 -66.792274 -18.604950 -44.998104 -95.027107 -5.002536 3.852979 12.726420 20.935604 -8.100947 3.089181 -14.089146 8.026228 88.555862 25.430130 13.977162 109.202499 4.988369 16.416834 8.807662 -4.516211 -7.789648 -33.523487 23.699522 7.780902 47.558075 0.708603 -20.565678 -1.459718 0.687717 -8.166641 3.403461 -13.019229 -20.300167 45.696781 -1.265432 -19.448568 -30.732740 1.778424 -5.894989 
2.829172 44.905853 -15.859280 -4.651321 -1.098139 -33.600800 0.000000 0.000000 0.000000 5.660979 -1.210654 -1.240577 -8.271970 -7.895620 15.344238 12.837980 1.517469 10.433489 -3.521967 9.154817 6.304141 -68.543434 -18.551296 -45.002625 -91.806427 -5.001550 8.786574 11.618930 18.734938 -8.289351 3.089181 -14.089146 8.026228 88.348503 24.943163 13.263783 108.784172 4.991568 17.438299 8.792532 -4.988075 -7.845422 -32.736912 21.097406 8.070800 49.174400 0.795646 -23.628035 -1.783341 0.675179 -8.272949 3.795301 -13.500624 -19.681915 43.340382 -0.768384 -18.135765 -28.226538 1.383929 -4.957778 
2.988651 45.321301 -15.621879 -4.548923 -0.538997 -33.253689 0.000000 0.000000 0.000000 3.982200 -1.171851 -0.371216 -7.214264 -8.063594 14.629235 13.851177 1.539491 9.847508 -3.521967 9.154817 6.304141 -69.582123 -18.645563 -44.993744 -87.726143 -4.997680 13.882830 11.570725 17.835213 -8.322330 3.089181 -14.089146 8.026228 88.303398 25.073503 13.038914 107.775719 4.994358 20.870077 5.656864 -3.911250 -7.958207 -31.452925 19.148788 8.237600 49.558342 0.994526 -24.961260 -1.563923 0.758065 -8.917706 4.227555 -13.953907 -19.372349 41.794102 -0.570907 -17.283535 -26.380110 1.055145 -4.298716 
3.224603 45.407555 -15.402471 -4.301699 -0.081520 -33.408249 0.000000 0.000000 0.000000 2.454768 -1.064435 0.331974 -7.121248 -7.570097 14.109588 15.092454 1.001199 9.669549 -3.521967 9.154817 6.304141 -69.829697 -18.741226 -45.000191 -84.085640 -4.999346 18.277336 11.321372 18.722473 -8.298581 3.089181 -14.089146 8.026228 88.176529 26.593071 13.088891 106.242653 4.993741 25.106741 2.869104 -1.575826 -7.896807 -30.559219 17.894743 8.158915 49.485180 0.853156 -24.999760 -2.249815 0.788519 -8.416452 4.012437 -14.618545 -19.570759 41.432343 -0.756510 -15.980399 -25.863131 1.061228 -4.280212 
